<svg width="21" height="27" viewBox="0 0 21 27" fill="none" xmlns="http://www.w3.org/2000/svg">
<path d="M20.5671 8.87501L12.0417 0.349588C11.825 0.132688 11.5311 0.0106916 11.2246 0.0104218H4.33333C3.20893 0.0104218 2.13057 0.457091 1.33549 1.25217C0.540419 2.04724 0.09375 3.1256 0.09375 4.25001V22.75C0.09375 23.8744 0.540419 24.9528 1.33549 25.7478C2.13057 26.5429 3.20893 26.9896 4.33333 26.9896H16.6667C17.7911 26.9896 18.8694 26.5429 19.6645 25.7478C20.4596 24.9528 20.9062 23.8744 20.9062 22.75V9.64584C20.8941 9.35539 20.773 9.08018 20.5671 8.87501ZM12.4271 3.95709L16.9596 8.48959H12.4271V3.95709ZM16.6667 24.6771H4.33333C3.82224 24.6771 3.33208 24.4741 2.97068 24.1127C2.60928 23.7513 2.40625 23.2611 2.40625 22.75V4.25001C2.40625 3.73891 2.60928 3.24875 2.97068 2.88735C3.33208 2.52595 3.82224 2.32292 4.33333 2.32292H10.1146V9.64584C10.1186 9.95125 10.2417 10.243 10.4577 10.459C10.6736 10.675 10.9654 10.7981 11.2708 10.8021H18.5938V22.75C18.5938 23.2611 18.3907 23.7513 18.0293 24.1127C17.6679 24.4741 17.1778 24.6771 16.6667 24.6771Z" fill="black"/>
</svg>
